<?xml version="1.0" encoding="UTF-8" standalone="no"?>
<!-- Created with Inkscape (http://www.inkscape.org/) -->

<svg
   xmlns:dc="http://purl.org/dc/elements/1.1/"
   xmlns:cc="http://creativecommons.org/ns#"
   xmlns:rdf="http://www.w3.org/1999/02/22-rdf-syntax-ns#"
   xmlns:svg="http://www.w3.org/2000/svg"
   xmlns="http://www.w3.org/2000/svg"
   xmlns:sodipodi="http://sodipodi.sourceforge.net/DTD/sodipodi-0.dtd"
   xmlns:inkscape="http://www.inkscape.org/namespaces/inkscape"
   version="1.2"
   width="163.76666"
   height="20.672741"
   id="svg5365"
   inkscape:version="0.48.4 r9939"
   sodipodi:docname="logo.svg">
  <sodipodi:namedview
     pagecolor="#ffffff"
     bordercolor="#666666"
     borderopacity="1"
     objecttolerance="10"
     gridtolerance="10"
     guidetolerance="10"
     inkscape:pageopacity="0"
     inkscape:pageshadow="2"
     inkscape:window-width="1920"
     inkscape:window-height="1030"
     id="namedview45"
     showgrid="false"
     inkscape:zoom="2.2898433"
     inkscape:cx="81.883331"
     inkscape:cy="10.33637"
     inkscape:window-x="0"
     inkscape:window-y="0"
     inkscape:window-maximized="1"
     inkscape:current-layer="svg5365" />
  <defs
     id="defs5367">
    <linearGradient
       id="linearGradient2990">
      <stop
         id="stop2992"
         style="stop-color:#000000;stop-opacity:0"
         offset="0" />
      <stop
         id="stop2994"
         style="stop-color:#000000;stop-opacity:0.49532712"
         offset="1" />
    </linearGradient>
  </defs>
  <metadata
     id="metadata5370">
    <rdf:RDF>
      <cc:Work
         rdf:about="">
        <dc:format>image/svg+xml</dc:format>
        <dc:type
           rdf:resource="http://purl.org/dc/dcmitype/StillImage" />
        <dc:title></dc:title>
      </cc:Work>
    </rdf:RDF>
  </metadata>
  <g
     transform="translate(136.63636,6.9778986)"
     id="layer1"
     style="fill:#ffffff"
     inkscape:export-filename="/home/nico/TravelStreetview.android/page/assets/images/path3030.png"
     inkscape:export-xdpi="274"
     inkscape:export-ydpi="274">
    <g
       transform="matrix(1.2146456,0.05343146,-0.04148939,0.94316918,-7.2704655,-5.0687751)"
       id="text5955"
       style="font-size:54.22114943999999781px;font-style:normal;font-variant:normal;font-weight:normal;font-stretch:normal;line-height:125%;letter-spacing:0px;word-spacing:0px;fill:#ffffff;fill-opacity:1;stroke:none;font-family:Saab;-inkscape-font-specification:Saab" />
    <path
       d="m -136.63636,3.1190079 c 0,1.5474157 1.44653,2.7989433 3.23508,2.7989433 2.42629,0 6.00799,-2.7989433 6.00799,-2.7989433 0,0 -3.5817,-2.798943 -6.00799,-2.798943 -1.78855,0 -3.23508,1.2515275 -3.23508,2.798943 z m 4.39045,0 c 0,0.5517917 -0.5176,0.9996229 -1.15537,0.9996229 -0.63778,0 -1.1554,-0.4478312 -1.1554,-0.9996229 0,-0.5517915 0.51762,-0.9996222 1.1554,-0.9996222 0.63777,0 1.15537,0.4478307 1.15537,0.9996222 z"
       id="path6243-9"
       style="fill:#ffffff;fill-opacity:1" />
    <path
       d="m -134.50815,12.988498 c 1.33239,1.03146 3.58703,0.920301 5.04231,-0.248597 1.97423,-1.585714 2.47856,-5.7922178 2.47856,-5.7922178 0,0 -5.32434,0.4751281 -7.29857,2.0608425 -1.45528,1.1688973 -1.55468,2.9485143 -0.2223,3.9799723 z m 3.57241,-2.869387 c 0.47513,0.367808 0.43956,1.004603 -0.0794,1.421419 -0.51894,0.416817 -1.32571,0.456592 -1.80082,0.08878 -0.47513,-0.367807 -0.43956,-1.004602 0.0794,-1.421419 0.51893,-0.4168167 1.32571,-0.4565932 1.80082,-0.08878 z"
       id="path6243-1"
       style="fill:#ffffff;fill-opacity:1" />
    <path
       d="m -135.56767,-5.9466899 c -1.00772,1.210246 -0.62529,2.998592 0.85525,3.9994969 2.00849,1.35781612 6.79615,1.17313606 6.79615,1.17313606 0,0 -1.14217,-4.19347066 -3.15067,-5.55128686 -1.48054,-1.0009047 -3.49301,-0.8315917 -4.50073,0.3786539 z m 3.63441,2.4570004 c -0.35933,0.431561 -1.07946,0.4921453 -1.6074,0.1352341 -0.52794,-0.3569124 -0.66478,-0.996832 -0.30544,-1.4283923 0.35933,-0.4315602 1.07945,-0.4921449 1.60739,-0.1352329 0.52795,0.3569114 0.66479,0.9968303 0.30545,1.4283911 z"
       id="path6243-9-2"
       style="fill:#ffffff;fill-opacity:1" />
    <path
       d=""
       id="path3010"
       style="fill:#ffffff;fill-opacity:0.96830989000000001" />
    <path
       d=""
       id="path3016"
       style="fill:#ffffff;fill-opacity:0.96830989000000001" />
    <g
       transform="matrix(-0.36416455,0.02376088,-0.01185415,0.39600368,-138.67122,-8.1244219)"
       id="text3034"
       style="font-size:51.53931427000000554px;font-style:normal;font-variant:normal;font-weight:normal;font-stretch:normal;line-height:125%;letter-spacing:0px;word-spacing:0px;fill:#ffffff;fill-opacity:1;stroke:none;font-family:Supersonic Rocketship;-inkscape-font-specification:Supersonic Rocketship">
      <path
         d="m -50.335615,52.625599 -0.452982,-34.376321 -8.807988,0 -0.150994,-8.6821571 26.556319,2.1551141 -0.182686,6.527043 -8.103349,0 -0.516451,36.474615 -8.341869,-2.098294"
         id="path3039"
         style="fill:#ffffff;fill-opacity:1" />
      <flowRoot
         id="flowRoot3004"
         xml:space="preserve"
         style="font-size:40px;font-style:normal;font-variant:normal;font-weight:normal;font-stretch:normal;line-height:125%;letter-spacing:0px;word-spacing:0px;fill:#ffffff;fill-opacity:1;stroke:none;font-family:Saab;-inkscape-font-specification:Saab"><flowRegion
           id="flowRegion3006"><rect
             width="56.363636"
             height="65.818184"
             x="-95.63636"
             y="-2.909091"
             id="rect3008"
             style="fill:#ffffff;fill-opacity:1" /></flowRegion><flowPara
           id="flowPara3010" /></flowRoot>      <flowRoot
         id="flowRoot3012"
         xml:space="preserve"
         style="font-size:40px;font-style:normal;font-variant:normal;font-weight:normal;font-stretch:normal;line-height:125%;letter-spacing:0px;word-spacing:0px;fill:#ffffff;fill-opacity:1;stroke:none;font-family:Saab;-inkscape-font-specification:Saab"><flowRegion
           id="flowRegion3014"><rect
             width="175.09091"
             height="90.727272"
             x="-142.54546"
             y="-0.54545456"
             id="rect3016"
             style="fill:#ffffff;fill-opacity:1" /></flowRegion><flowPara
           id="flowPara3018" /></flowRoot>      <flowRoot
         transform="matrix(-1.0438193,0.0626309,-0.03124614,0.95989504,0,0)"
         id="flowRoot3020"
         xml:space="preserve"
         style="font-size:16px;font-style:normal;font-variant:normal;font-weight:normal;font-stretch:normal;line-height:125%;letter-spacing:0px;word-spacing:0px;fill:#ffffff;fill-opacity:1;stroke:none;font-family:Saab;-inkscape-font-specification:Saab"><flowRegion
           id="flowRegion3022"><rect
             width="98.181816"
             height="86.727272"
             x="-135.63637"
             y="-5.2727275"
             id="rect3024"
             style="font-size:16px;fill:#ffffff;fill-opacity:1" /></flowRegion><flowPara
           id="flowPara3026"
           style="font-size:56px;font-style:normal;font-variant:normal;font-weight:normal;font-stretch:normal;text-align:start;line-height:125%;writing-mode:lr-tb;text-anchor:start;fill:#ffffff;fill-opacity:1;font-family:Supersonic Rocketship;-inkscape-font-specification:Supersonic Rocketship">TRAVEL</flowPara></flowRoot>      <text
         x="-122.36364"
         y="15.818182"
         transform="matrix(-1.0438193,0.0626309,-0.03124614,0.95989504,0,0)"
         id="text3028"
         xml:space="preserve"
         style="font-size:40px;font-style:normal;font-variant:normal;font-weight:normal;font-stretch:normal;line-height:125%;letter-spacing:0px;word-spacing:0px;fill:#ffffff;fill-opacity:1;stroke:none;font-family:Saab;-inkscape-font-specification:Saab"><tspan
           x="-122.36364"
           y="15.818182"
           id="tspan3030"
           style="fill:#ffffff" /></text>
      <text
         x="-122.36364"
         y="15.818182"
         transform="matrix(-1.0438193,0.0626309,-0.03124614,0.95989504,0,0)"
         id="text3032"
         xml:space="preserve"
         style="font-size:40px;font-style:normal;font-variant:normal;font-weight:normal;font-stretch:normal;line-height:125%;letter-spacing:0px;word-spacing:0px;fill:#ffffff;fill-opacity:1;stroke:none;font-family:Saab;-inkscape-font-specification:Saab"><tspan
           x="-122.36364"
           y="15.818182"
           id="tspan3034"
           style="fill:#ffffff" /></text>
      <flowRoot
         transform="matrix(-1.0438193,0.0626309,-0.03124614,0.95989504,0,0)"
         id="flowRoot3036"
         xml:space="preserve"
         style="font-size:40px;font-style:normal;font-variant:normal;font-weight:normal;font-stretch:normal;line-height:125%;letter-spacing:0px;word-spacing:0px;fill:#ffffff;fill-opacity:1;stroke:none;font-family:Supersonic Rocketship;-inkscape-font-specification:Supersonic Rocketship"><flowRegion
           id="flowRegion3038"><rect
             width="88.545456"
             height="64.545456"
             x="-104.72727"
             y="11.090909"
             id="rect3040"
             style="font-style:normal;font-variant:normal;font-weight:normal;font-stretch:normal;fill:#ffffff;fill-opacity:1;font-family:Supersonic Rocketship;-inkscape-font-specification:Supersonic Rocketship" /></flowRegion><flowPara
           id="flowPara3042">Trave</flowPara></flowRoot>      <flowRoot
         transform="matrix(-1.0438193,0.0626309,-0.03124614,0.95989504,0,0)"
         id="flowRoot3044"
         xml:space="preserve"
         style="font-size:40px;font-style:normal;font-variant:normal;font-weight:normal;font-stretch:normal;line-height:125%;letter-spacing:0px;word-spacing:0px;fill:#ffffff;fill-opacity:1;stroke:none;font-family:Saab;-inkscape-font-specification:Saab"><flowRegion
           id="flowRegion3046"><rect
             width="288.90909"
             height="84.545456"
             x="-165.45454"
             y="-12.363636"
             id="rect3048"
             style="fill:#ffffff;fill-opacity:1" /></flowRegion><flowPara
           id="flowPara3050" /></flowRoot>    </g>
    <flowRoot
       transform="matrix(0.37937954,0,0,0.37937954,-139.361,-6.6069039)"
       id="flowRoot3828"
       xml:space="preserve"
       style="font-size:40px;font-style:normal;font-variant:normal;font-weight:normal;font-stretch:normal;line-height:125%;letter-spacing:0px;word-spacing:0px;fill:#ffffff;fill-opacity:1;stroke:none;font-family:Saab;-inkscape-font-specification:Saab"><flowRegion
         id="flowRegion3830"><rect
           width="388.00003"
           height="59.999996"
           x="59.272728"
           y="3.4545455"
           id="rect3832"
           style="fill:#ffffff;fill-opacity:1" /></flowRegion><flowPara
         id="flowPara3834"
         style="font-size:48px;font-style:normal;font-variant:normal;font-weight:normal;font-stretch:normal;fill:#ffffff;fill-opacity:1;font-family:Supersonic Rocketship;-inkscape-font-specification:Supersonic Rocketship">ravelstreetview</flowPara></flowRoot>  </g>
  <path
     style="fill:#ffffff;fill-opacity:1;stroke:#800000;stroke-width:0;stroke-linejoin:miter;stroke-miterlimit:4;stroke-opacity:1;stroke-dasharray:none"
     d="M 20.956134,18.78673 C 20.928815,18.726682 20.781425,15.170428 20.6286,10.883943 L 20.350737,3.0903333 23.66837,3.2416994 c 4.573639,0.2086711 4.920321,0.5581091 4.655022,4.692029 -0.173182,2.6985496 -0.376752,3.3930496 -1.186833,4.0490136 l -0.977796,0.791771 1.377787,2.441305 c 1.090394,1.932071 1.270561,2.570503 0.863736,3.060697 -0.282728,0.340666 -0.663425,0.619393 -0.845993,0.619393 -0.182569,0 -1.190236,-1.319502 -2.239261,-2.932226 l -1.907317,-2.932226 -0.129131,2.932226 c -0.122733,2.786934 -0.18224,2.932226 -1.200956,2.932226 -0.589503,0 -1.094176,-0.04913 -1.121494,-0.109178 z m 4.31961,-8.8681628 c 1.245893,-0.8726571 1.319949,-3.0328699 0.125881,-3.6719159 -1.804196,-0.9655764 -2.212266,-0.6059141 -2.212266,1.9498348 0,2.6030339 0.380391,2.9170059 2.086385,1.7220811 z"
     id="path3022"
     inkscape:connector-curvature="0"
     inkscape:export-filename="/home/nico/TravelStreetview.android/page/assets/images/path3030.png"
     inkscape:export-xdpi="274"
     inkscape:export-ydpi="274" />
  <path
     style="fill:#ffffff;fill-opacity:1;stroke:#800000;stroke-width:0;stroke-linejoin:miter;stroke-miterlimit:4;stroke-opacity:1;stroke-dasharray:none"
     d="M 20.819784,16.603175 C 20.682906,15.342171 20.521375,11.785968 20.460826,8.7005 L 20.350737,3.090559 23.66837,3.2418123 c 4.573639,0.2085155 4.920324,0.5579479 4.655022,4.6919161 -0.17271,2.6911896 -0.37782,3.3939146 -1.180267,4.0436966 l -0.971229,0.786454 1.388146,2.426227 c 1.122343,1.961652 1.286475,2.548734 0.85717,3.066015 -0.826665,0.99607 -1.08627,0.818328 -2.887044,-1.97666 -0.927158,-1.439046 -1.833132,-2.618166 -2.013275,-2.620267 -0.180144,-0.0021 -0.327534,1.175301 -0.327534,2.616447 0,2.483104 -0.05551,2.620267 -1.060353,2.620267 -0.956414,0 -1.084749,-0.224742 -1.309222,-2.292733 z M 25.372915,9.7249749 C 26.51959,8.5782995 26.50266,6.8359073 25.33879,6.213023 23.786324,5.3821686 23.189359,5.9898766 23.189359,8.4011354 c 0,2.4600736 0.652018,2.8553766 2.183556,1.3238395 z"
     id="path3024"
     inkscape:connector-curvature="0"
     inkscape:export-filename="/home/nico/TravelStreetview.android/page/assets/images/path3030.png"
     inkscape:export-xdpi="274"
     inkscape:export-ydpi="274" />
  <path
     style="fill:#ffffff;fill-opacity:1;stroke:#800000;stroke-width:0;stroke-linejoin:miter;stroke-miterlimit:4;stroke-opacity:1;stroke-dasharray:none"
     d="M 20.815912,17.039886 C 20.682036,16.019074 20.522605,12.462863 20.46162,9.1371954 l -0.110883,-6.046668 3.317633,0.1512691 c 4.573639,0.2085372 4.920324,0.5579704 4.655022,4.6919319 -0.17271,2.6911896 -0.37782,3.3939146 -1.180267,4.0436966 l -0.971229,0.786454 1.388146,2.426227 c 1.122343,1.961652 1.286475,2.548734 0.85717,3.066015 -0.826665,0.99607 -1.08627,0.818328 -2.887044,-1.97666 -0.927158,-1.439046 -1.833132,-2.618166 -2.013275,-2.620267 -0.180144,-0.0021 -0.327534,1.175301 -0.327534,2.616447 0,2.486255 -0.05447,2.620267 -1.065019,2.620267 -0.923641,0 -1.097331,-0.246381 -1.308428,-1.856022 z M 25.372915,9.7249749 C 26.51959,8.5782995 26.50266,6.8359073 25.33879,6.213023 23.849658,5.4160638 23.189359,5.9988079 23.189359,8.109995 c 0,2.699803 0.631597,3.166939 2.183556,1.6149799 z"
     id="path3026"
     inkscape:connector-curvature="0"
     inkscape:export-filename="/home/nico/TravelStreetview.android/page/assets/images/path3030.png"
     inkscape:export-xdpi="274"
     inkscape:export-ydpi="274" />
  <path
     style="fill:#ffffff;fill-opacity:1;stroke:#800000;stroke-width:0;stroke-linejoin:miter;stroke-miterlimit:4;stroke-opacity:1;stroke-dasharray:none"
     d="M 20.820766,17.039886 C 20.689561,16.019074 20.530129,12.46304 20.466474,9.137588 L 20.350737,3.0913121 23.66837,3.2421888 c 4.57364,0.2079964 4.920334,0.5574102 4.655022,4.6915396 -0.17127,2.6687526 -0.38099,3.3964816 -1.160783,4.0279196 l -0.951747,0.770678 1.38828,2.459896 c 1.305064,2.312447 1.343793,2.503718 0.646113,3.190969 -0.685407,0.675162 -0.781873,0.676533 -1.261364,0.01793 -0.285559,-0.39223 -1.207018,-1.66961 -2.047687,-2.838622 l -1.528489,-2.125477 -0.130017,2.729445 c -0.121508,2.550837 -0.198344,2.729444 -1.174196,2.729444 -0.899887,0 -1.077147,-0.256481 -1.282736,-1.856022 z m 4.529435,-7.509089 c 1.201554,-1.2789949 0.962228,-3.0810696 -0.469534,-3.535493 -1.162535,-0.3689744 -1.675746,0.3792121 -1.68462,2.4559301 -0.01039,2.4310819 0.598022,2.7359889 2.154154,1.0795629 z"
     id="path3028"
     inkscape:connector-curvature="0"
     inkscape:export-filename="/home/nico/TravelStreetview.android/page/assets/images/path3030.png"
     inkscape:export-xdpi="274"
     inkscape:export-ydpi="274" />
  <path
     style="fill:#ffffff;fill-opacity:1;stroke:#800000;stroke-width:0;stroke-linejoin:miter;stroke-miterlimit:4;stroke-opacity:1;stroke-dasharray:none"
     d="M 20.824952,17.039886 C 20.69605,16.019074 20.530433,12.462855 20.456915,9.1371788 l -0.133668,-6.0466851 3.331378,0.1512859 c 4.588914,0.2083937 4.934233,0.5554269 4.668767,4.6919488 -0.17127,2.6687526 -0.38099,3.3964816 -1.160783,4.0279196 l -0.951747,0.770678 1.374329,2.435177 c 1.118119,1.981198 1.274285,2.555722 0.837687,3.081791 -0.810157,0.976179 -1.022049,0.843922 -2.8122,-1.755297 -0.909843,-1.321051 -1.826848,-2.401911 -2.037789,-2.401911 -0.210941,0 -0.38353,1.08086 -0.38353,2.401911 0,2.254805 -0.06523,2.401911 -1.065019,2.401911 -0.925059,0 -1.095819,-0.24391 -1.299388,-1.856022 z m 4.998859,-8.2148377 c 0.259002,-0.4839501 0.355257,-1.2443078 0.2139,-1.6896837 -0.308645,-0.9724555 -1.714868,-1.426166 -2.374814,-0.7662211 -0.50702,0.5070211 -0.656114,3.4643952 -0.197762,3.9227475 0.412235,0.412235 1.822347,-0.4647034 2.358676,-1.4668427 z"
     id="path3030"
     inkscape:connector-curvature="0"
     inkscape:export-xdpi="274"
     inkscape:export-ydpi="274" />
</svg>
