<?xml version="1.0" encoding="UTF-8" standalone="no"?>
<!-- Created with Inkscape (http://www.inkscape.org/) -->

<svg
   xmlns:dc="http://purl.org/dc/elements/1.1/"
   xmlns:cc="http://creativecommons.org/ns#"
   xmlns:rdf="http://www.w3.org/1999/02/22-rdf-syntax-ns#"
   xmlns:svg="http://www.w3.org/2000/svg"
   xmlns="http://www.w3.org/2000/svg"
   version="1.2"
   width="163.76666"
   height="20.672741"
   id="svg5365">
  <defs
     id="defs5367">
    <linearGradient
       id="linearGradient2990">
      <stop
         id="stop2992"
         style="stop-color:#000000;stop-opacity:0"
         offset="0" />
      <stop
         id="stop2994"
         style="stop-color:#000000;stop-opacity:0.49532712"
         offset="1" />
    </linearGradient>
  </defs>
  <metadata
     id="metadata5370">
    <rdf:RDF>
      <cc:Work
         rdf:about="">
        <dc:format>image/svg+xml</dc:format>
        <dc:type
           rdf:resource="http://purl.org/dc/dcmitype/StillImage" />
        <dc:title></dc:title>
      </cc:Work>
    </rdf:RDF>
  </metadata>
  <g
     transform="translate(136.63636,6.9778986)"
     id="layer1">
    <g
       transform="matrix(1.2146456,0.05343146,-0.04148939,0.94316918,-7.2704655,-5.0687751)"
       id="text5955"
       style="font-size:54.22114944px;font-style:normal;font-variant:normal;font-weight:normal;font-stretch:normal;line-height:125%;letter-spacing:0px;word-spacing:0px;fill:#000000;fill-opacity:1;stroke:none;font-family:Saab;-inkscape-font-specification:Saab" />
    <path
       d="m -136.63636,3.1190079 c 0,1.5474157 1.44653,2.7989433 3.23508,2.7989433 2.42629,0 6.00799,-2.7989433 6.00799,-2.7989433 0,0 -3.5817,-2.798943 -6.00799,-2.798943 -1.78855,0 -3.23508,1.2515275 -3.23508,2.798943 z m 4.39045,0 c 0,0.5517917 -0.5176,0.9996229 -1.15537,0.9996229 -0.63778,0 -1.1554,-0.4478312 -1.1554,-0.9996229 0,-0.5517915 0.51762,-0.9996222 1.1554,-0.9996222 0.63777,0 1.15537,0.4478307 1.15537,0.9996222 z"
       id="path6243-9"
       style="fill:#00c58b;fill-opacity:1" />
    <path
       d="m -134.50815,12.988498 c 1.33239,1.03146 3.58703,0.920301 5.04231,-0.248597 1.97423,-1.585714 2.47856,-5.7922178 2.47856,-5.7922178 0,0 -5.32434,0.4751281 -7.29857,2.0608425 -1.45528,1.1688973 -1.55468,2.9485143 -0.2223,3.9799723 z m 3.57241,-2.869387 c 0.47513,0.367808 0.43956,1.004603 -0.0794,1.421419 -0.51894,0.416817 -1.32571,0.456592 -1.80082,0.08878 -0.47513,-0.367807 -0.43956,-1.004602 0.0794,-1.421419 0.51893,-0.4168167 1.32571,-0.4565932 1.80082,-0.08878 z"
       id="path6243-1"
       style="fill:#00c58b;fill-opacity:1" />
    <path
       d="m -135.56767,-5.9466899 c -1.00772,1.210246 -0.62529,2.998592 0.85525,3.9994969 2.00849,1.35781612 6.79615,1.17313606 6.79615,1.17313606 0,0 -1.14217,-4.19347066 -3.15067,-5.55128686 -1.48054,-1.0009047 -3.49301,-0.8315917 -4.50073,0.3786539 z m 3.63441,2.4570004 c -0.35933,0.431561 -1.07946,0.4921453 -1.6074,0.1352341 -0.52794,-0.3569124 -0.66478,-0.996832 -0.30544,-1.4283923 0.35933,-0.4315602 1.07945,-0.4921449 1.60739,-0.1352329 0.52795,0.3569114 0.66479,0.9968303 0.30545,1.4283911 z"
       id="path6243-9-2"
       style="fill:#00c58b;fill-opacity:1" />
    <path
       d=""
       id="path3010"
       style="fill:#ffffff;fill-opacity:0.96830989" />
    <path
       d=""
       id="path3016"
       style="fill:#ffffff;fill-opacity:0.96830989" />
    <g
       transform="matrix(-0.36416455,0.02376088,-0.01185415,0.39600368,-138.67122,-8.1244219)"
       id="text3034"
       style="font-size:51.53931427px;font-style:normal;font-variant:normal;font-weight:normal;font-stretch:normal;line-height:125%;letter-spacing:0px;word-spacing:0px;fill:#00c58b;fill-opacity:1;stroke:none;font-family:Supersonic Rocketship;-inkscape-font-specification:Supersonic Rocketship">
      <path
         d="m -50.335615,52.625599 -0.452982,-34.376321 -8.807988,0 -0.150994,-8.6821571 26.556319,2.1551141 -0.182686,6.527043 -8.103349,0 -0.516451,36.474615 -8.341869,-2.098294"
         id="path3039"
         style="fill:#00c58b;fill-opacity:1" />
      <flowRoot
         id="flowRoot3004"
         xml:space="preserve"
         style="font-size:40px;font-style:normal;font-variant:normal;font-weight:normal;font-stretch:normal;line-height:125%;letter-spacing:0px;word-spacing:0px;fill:#00c58b;fill-opacity:1;stroke:none;font-family:Saab;-inkscape-font-specification:Saab"><flowRegion
           id="flowRegion3006"><rect
             width="56.363636"
             height="65.818184"
             x="-95.63636"
             y="-2.909091"
             id="rect3008"
             style="fill:#00c58b;fill-opacity:1" /></flowRegion><flowPara
           id="flowPara3010"></flowPara></flowRoot>      <flowRoot
         id="flowRoot3012"
         xml:space="preserve"
         style="font-size:40px;font-style:normal;font-variant:normal;font-weight:normal;font-stretch:normal;line-height:125%;letter-spacing:0px;word-spacing:0px;fill:#00c58b;fill-opacity:1;stroke:none;font-family:Saab;-inkscape-font-specification:Saab"><flowRegion
           id="flowRegion3014"><rect
             width="175.09091"
             height="90.727272"
             x="-142.54546"
             y="-0.54545456"
             id="rect3016"
             style="fill:#00c58b;fill-opacity:1" /></flowRegion><flowPara
           id="flowPara3018"></flowPara></flowRoot>      <flowRoot
         transform="matrix(-1.0438193,0.0626309,-0.03124614,0.95989504,0,0)"
         id="flowRoot3020"
         xml:space="preserve"
         style="font-size:16px;font-style:normal;font-variant:normal;font-weight:normal;font-stretch:normal;line-height:125%;letter-spacing:0px;word-spacing:0px;fill:#00c58b;fill-opacity:1;stroke:none;font-family:Saab;-inkscape-font-specification:Saab"><flowRegion
           id="flowRegion3022"><rect
             width="98.181816"
             height="86.727272"
             x="-135.63637"
             y="-5.2727275"
             id="rect3024"
             style="font-size:16px;fill:#00c58b;fill-opacity:1" /></flowRegion><flowPara
           id="flowPara3026"
           style="font-size:56px;font-style:normal;font-variant:normal;font-weight:normal;font-stretch:normal;text-align:start;line-height:125%;writing-mode:lr-tb;text-anchor:start;fill:#00c58b;fill-opacity:1;font-family:Supersonic Rocketship;-inkscape-font-specification:Supersonic Rocketship">TRAVEL</flowPara></flowRoot>      <text
         x="-122.36364"
         y="15.818182"
         transform="matrix(-1.0438193,0.0626309,-0.03124614,0.95989504,0,0)"
         id="text3028"
         xml:space="preserve"
         style="font-size:40px;font-style:normal;font-variant:normal;font-weight:normal;font-stretch:normal;line-height:125%;letter-spacing:0px;word-spacing:0px;fill:#00c58b;fill-opacity:1;stroke:none;font-family:Saab;-inkscape-font-specification:Saab"><tspan
           x="-122.36364"
           y="15.818182"
           id="tspan3030" /></text>
      <text
         x="-122.36364"
         y="15.818182"
         transform="matrix(-1.0438193,0.0626309,-0.03124614,0.95989504,0,0)"
         id="text3032"
         xml:space="preserve"
         style="font-size:40px;font-style:normal;font-variant:normal;font-weight:normal;font-stretch:normal;line-height:125%;letter-spacing:0px;word-spacing:0px;fill:#00c58b;fill-opacity:1;stroke:none;font-family:Saab;-inkscape-font-specification:Saab"><tspan
           x="-122.36364"
           y="15.818182"
           id="tspan3034" /></text>
      <flowRoot
         transform="matrix(-1.0438193,0.0626309,-0.03124614,0.95989504,0,0)"
         id="flowRoot3036"
         xml:space="preserve"
         style="font-size:40px;font-style:normal;font-variant:normal;font-weight:normal;font-stretch:normal;line-height:125%;letter-spacing:0px;word-spacing:0px;fill:#00c58b;fill-opacity:1;stroke:none;font-family:Supersonic Rocketship;-inkscape-font-specification:Supersonic Rocketship"><flowRegion
           id="flowRegion3038"><rect
             width="88.545456"
             height="64.545456"
             x="-104.72727"
             y="11.090909"
             id="rect3040"
             style="font-style:normal;font-variant:normal;font-weight:normal;font-stretch:normal;fill:#00c58b;fill-opacity:1;font-family:Supersonic Rocketship;-inkscape-font-specification:Supersonic Rocketship" /></flowRegion><flowPara
           id="flowPara3042">Trave</flowPara></flowRoot>      <flowRoot
         transform="matrix(-1.0438193,0.0626309,-0.03124614,0.95989504,0,0)"
         id="flowRoot3044"
         xml:space="preserve"
         style="font-size:40px;font-style:normal;font-variant:normal;font-weight:normal;font-stretch:normal;line-height:125%;letter-spacing:0px;word-spacing:0px;fill:#00c58b;fill-opacity:1;stroke:none;font-family:Saab;-inkscape-font-specification:Saab"><flowRegion
           id="flowRegion3046"><rect
             width="288.90909"
             height="84.545456"
             x="-165.45454"
             y="-12.363636"
             id="rect3048"
             style="fill:#00c58b;fill-opacity:1" /></flowRegion><flowPara
           id="flowPara3050" /></flowRoot>    </g>
    <flowRoot
       transform="matrix(0.37937954,0,0,0.37937954,-139.361,-6.6069039)"
       id="flowRoot3828"
       xml:space="preserve"
       style="font-size:40px;font-style:normal;font-variant:normal;font-weight:normal;font-stretch:normal;line-height:125%;letter-spacing:0px;word-spacing:0px;fill:#00c58b;fill-opacity:1;stroke:none;font-family:Saab;-inkscape-font-specification:Saab"><flowRegion
         id="flowRegion3830"><rect
           width="388.00003"
           height="59.999996"
           x="59.272728"
           y="3.4545455"
           id="rect3832"
           style="fill:#00c58b;fill-opacity:1" /></flowRegion><flowPara
         id="flowPara3834"
         style="font-size:48px;font-style:normal;font-variant:normal;font-weight:normal;font-stretch:normal;fill:#00c58b;fill-opacity:1;font-family:Supersonic Rocketship;-inkscape-font-specification:Supersonic Rocketship">ravelstreetview</flowPara></flowRoot>  </g>
</svg>
